<svg height="437pt" viewBox="-22 0 437 437.60422" width="437pt" xmlns="http://www.w3.org/2000/svg" xmlns:xlink="http://www.w3.org/1999/xlink"><linearGradient id="a" gradientUnits="userSpaceOnUse" x1="197.389055" x2="197.389055" y1="-35.398776" y2="464.369224"><stop offset="0" stop-color="#00efd1"/><stop offset="1" stop-color="#00acea"/></linearGradient><path d="m387.535156 87.800781c-11.296875-36.542969-37.285156-64.382812-69.53125-74.484375-47.167968-15.289062-87.707031 6.308594-109.824218 18.300782-21.511719-15.945313-46.363282-31.617188-73.6875-31.617188-26.90625-.113281-53.207032 7.96875-75.40625 23.171875-11.820313 8.121094-21.105469 16.753906-28.382813 26.371094-.585937.691406-1.101563 1.4375-1.53125 2.234375-39.859375 51.253906-38.292969 123.4375 3.753906 172.910156.59375.867188 1.277344 1.828125 1.964844 2.792969.699219.980469 1.398437 1.957031 1.960937 2.796875.101563.15625.210938.308594.320313.457031 10.15625 13.542969 19.089844 35.136719 23.902344 57.777344 1.769531 8.851562 3.570312 18.433593 4.753906 28.5 3.753906 32.515625 9.96875 58.96875 18.472656 78.625 10.867188 26.042969 25.621094 40.21875 43.855469 41.734375.277344.023437.554688.234375.832031.234375h2.449219c21.617188 0 34.796875-28.179688 44.832031-55.59375l15.300781-39.023438c1.359376-3.613281 4.851563-5.96875 8.707032-5.875 3.855468-.011719 7.277344 2.445313 8.5 6.097657l13.5625 38.390624c.011718.035157.023437.261719.035156.300782 13.855469 37.867187 28.113281 55.699218 44.875 55.699218h2.445312c.289063 0 .582032-.210937.867188-.234374 12.550781-1.09375 30.347656-9.292969 43.839844-41.679688 7.914062-18.875 13.773437-43.832031 18.429687-78.441406.007813-.054688.015625-.136719.023438-.191406 1.183593-10.066407 2.984375-19.664063 4.753906-28.527344 4.8125-22.640625 13.746094-44.242188 23.949219-57.847656 31.304687-42.394532 41.003906-95.84375 25.976562-142.878907zm-42.023437 130.933594c-17.042969 22.726563-24.894531 53.507813-27.476563 65.6875l-.023437.113281c-1.851563 9.265625-3.742188 19.320313-5.011719 30.074219-4.414062 32.777344-9.828125 56.25-17.050781 73.464844-4.316407 10.367187-13.507813 27.527343-26.738281 29.527343h-1.960938c-.433594 0-10.753906-.675781-26.070312-42.519531l-13.539063-38.453125c-3.992187-11.546875-14.796875-19.351562-27.011719-19.515625-.179687 0-.355468-.027343-.535156-.027343-12.011719-.070313-22.8125 7.292968-27.140625 18.5l-15.34375 39.027343c-.027344.074219-.054687.34375-.082031.414063-14.386719 39.324218-23.609375 42.574218-26.09375 42.574218h-1.984375c-10.054688-1-19.042969-11.117187-26.714844-29.527343-.015625-.042969-.035156-.1875-.054687-.230469-7.628907-17.605469-13.5-42.90625-16.988282-73.097656-1.269531-10.808594-3.164062-20.902344-5.019531-30.183594-.007813-.039062-.015625-.085938-.023437-.125-2.574219-12.140625-10.382813-42.773438-27.3125-65.476562-.636719-.945313-1.402344-2.023438-2.171876-3.101563-.699218-.976563-1.398437-1.953125-1.953124-2.789063-.226563-.339843-.476563-.667968-.742188-.976562-36.171875-42.21875-37.660156-104.058594-3.5625-147.96875.59375-.6875 1.113281-1.441406 1.550781-2.238281.414063-.515625.851563-1.027344 1.277344-1.539063.410156-.488281.808594-.976562 1.226563-1.460937.5-.582031 1.03125-1.15625 1.554687-1.730469.398437-.4375.785156-.882812 1.191406-1.320312.558594-.597657 1.136719-1.179688 1.707031-1.765626.394532-.402343.777344-.8125 1.175782-1.210937.601562-.597656 1.214844-1.175781 1.824218-1.757813.402344-.378906.78125-.761718 1.179688-1.132812.628906-.585938 1.273438-1.148438 1.914062-1.71875.398438-.355469.789063-.71875 1.191407-1.066406.660156-.570313 1.332031-1.121094 2-1.671875.398437-.328125.785156-.667969 1.183593-.988281.707032-.570313 1.425782-1.113282 2.140626-1.660157.371093-.285156.734374-.578125 1.101562-.855469 1.085938-.8125 2.183594-1.597656 3.285156-2.355468 18.867188-12.910156 41.222656-19.761719 64.082032-19.652344 23.332031 0 46.699218 16.222656 66.765624 31.425781 3.101563 2.347657 7.28125 2.6875 10.71875.867188 1.589844-.84375 3.289063-1.765625 5.09375-2.742188 20.691407-11.226562 55.324219-30.011719 94.8125-17.191406l.105469.03125c26.371094 8.242187 46.945313 30.589844 56.46875 61.40625 13.105469 41.023437 4.511719 87.753906-22.945312 124.9375zm0 0" fill="url(#a)"/></svg>